<?xml version="1.0" standalone="no"?>
<!DOCTYPE svg PUBLIC "-//W3C//DTD SVG 20010904//EN"
 "http://www.w3.org/TR/2001/REC-SVG-20010904/DTD/svg10.dtd">
<svg version="1.0" xmlns="http://www.w3.org/2000/svg"
 width="900.000000pt" height="594.000000pt" viewBox="0 0 900.000000 594.000000"
 preserveAspectRatio="xMidYMid meet">

<g transform="translate(0.000000,594.000000) scale(0.100000,-0.100000)"
fill="#000000" stroke="none">
<path d="M6233 5189 c-7 -7 -13 -16 -13 -21 0 -4 -27 -52 -60 -106 -33 -55
-60 -105 -60 -111 0 -6 -4 -11 -9 -11 -7 0 -31 -51 -31 -66 0 -2 94 -4 209 -4
115 0 216 -3 225 -6 14 -6 16 -122 16 -1220 l0 -1214 -935 0 -934 0 -21 -22
c-11 -12 -20 -25 -20 -30 0 -4 -20 -40 -44 -80 -25 -40 -46 -80 -48 -88 -3
-13 115 -16 997 -20 l1000 -5 0 -175 0 -175 -1112 -5 c-611 -3 -1113 -7 -1115
-10 -19 -27 -46 -88 -41 -94 3 -3 511 -6 1127 -6 617 0 1127 -4 1134 -8 9 -7
12 -49 10 -178 l-3 -169 -1175 0 -1175 0 -5 110 -5 110 -21 -30 c-12 -16 -36
-57 -53 -90 -18 -33 -55 -97 -82 -141 -27 -45 -49 -87 -49 -93 0 -6 -4 -11 -9
-11 -5 0 -13 -10 -17 -22 -4 -13 -20 -43 -35 -68 l-29 -45 0 1118 c0 614 4
1117 8 1117 4 0 13 -5 20 -12 7 -7 12 -8 12 -2 -1 5 -31 31 -68 57 -37 26
-103 74 -147 107 -78 58 -109 73 -99 47 2 -7 -6 -35 -19 -62 -14 -28 -28 -61
-32 -75 -4 -14 -11 -29 -15 -35 -4 -5 -11 -26 -15 -45 -4 -19 -11 -41 -16 -50
-14 -25 -30 -128 -44 -285 -19 -203 -32 -302 -46 -350 -6 -22 -13 -46 -15 -52
-5 -19 -230 -17 -352 2 -91 15 -176 39 -195 55 -8 8 22 110 35 120 3 3 10 18
13 33 4 15 11 27 16 27 5 0 9 5 9 11 0 5 11 34 24 63 37 81 44 117 56 296 15
233 18 254 35 240 19 -16 183 -15 232 0 74 24 149 69 195 117 41 43 88 115 88
135 0 4 14 31 32 60 l32 51 -22 15 c-23 15 -30 42 -10 42 6 0 1 11 -11 24 -13
14 -20 30 -16 36 4 6 68 56 141 111 74 55 143 114 154 132 16 25 20 50 20 118
l0 86 -101 7 c-55 3 -104 4 -108 1 -5 -2 -11 -27 -15 -55 -5 -34 -11 -50 -21
-50 -8 0 -15 -5 -15 -11 0 -33 -36 -125 -56 -146 -38 -38 -52 -30 -90 51 -26
57 -34 88 -34 130 l0 56 -208 0 c-196 0 -209 -1 -225 -20 -9 -11 -17 -24 -17
-29 0 -5 -6 -16 -12 -23 -7 -7 -21 -30 -30 -50 -10 -21 -25 -38 -34 -38 -8 0
-36 -12 -62 -27 -54 -32 -62 -37 -136 -81 -59 -35 -213 -152 -281 -212 -244
-217 -464 -473 -620 -720 -124 -197 -285 -549 -349 -765 -10 -33 -24 -78 -31
-100 -30 -96 -47 -175 -42 -189 5 -14 30 -16 157 -16 l150 0 0 -113 c0 -75 4
-117 12 -125 9 -9 85 -12 279 -12 168 0 270 -4 274 -10 4 -6 63 -10 144 -10
133 0 139 -1 165 -25 30 -28 31 -33 12 -100 -36 -125 -79 -274 -92 -317 -8
-27 -20 -69 -28 -95 -8 -27 -29 -97 -46 -158 -51 -179 -55 -189 -65 -208 -10
-16 -41 -18 -365 -22 -195 -3 -437 -8 -537 -11 l-183 -6 1 -92 c0 -83 8 -206
25 -393 l7 -73 -107 0 c-106 0 -106 0 -106 24 0 14 -4 27 -9 30 -5 4 -12 29
-16 56 -4 27 -10 52 -15 55 -4 3 -11 29 -15 60 -3 30 -10 57 -15 60 -4 3 -11
28 -15 55 -4 27 -11 52 -15 55 -5 3 -12 30 -15 60 -4 31 -11 58 -15 60 -5 3
-12 30 -15 60 -4 31 -11 58 -15 60 -5 3 -12 31 -16 63 -3 31 -10 62 -14 67 -5
6 -11 36 -15 68 -4 31 -11 59 -15 62 -5 3 -11 32 -15 65 -4 33 -11 62 -15 65
-4 3 -11 33 -15 67 -4 35 -11 68 -15 73 -4 6 -11 30 -14 55 -4 25 -11 54 -16
65 -5 11 -14 46 -19 78 -25 135 -34 173 -41 182 -5 6 -12 38 -16 73 -3 34 -11
62 -15 62 -5 0 -9 14 -9 31 0 22 -9 40 -31 60 -30 28 -34 29 -140 29 l-109 0
0 -40 0 -40 94 0 c63 0 97 -4 104 -13 5 -6 13 -38 17 -70 4 -31 11 -59 15 -62
5 -3 11 -32 15 -65 4 -33 11 -62 15 -65 4 -3 11 -32 15 -65 4 -33 11 -62 15
-65 4 -3 11 -32 15 -65 4 -33 11 -62 15 -65 4 -3 11 -32 15 -65 4 -33 11 -62
15 -65 4 -3 11 -32 15 -65 4 -33 11 -62 15 -65 5 -3 12 -34 15 -70 4 -36 11
-65 15 -65 5 0 12 -29 15 -65 4 -36 11 -68 15 -70 5 -3 12 -30 15 -60 4 -31
11 -57 15 -60 5 -3 11 -28 15 -55 4 -27 11 -52 15 -55 5 -3 12 -30 15 -60 4
-31 11 -58 15 -60 5 -3 12 -30 15 -60 4 -30 11 -55 15 -55 5 0 11 -24 15 -52
4 -29 11 -57 15 -63 4 -5 11 -29 15 -51 3 -23 19 -56 34 -74 25 -30 34 -34 90
-38 59 -4 63 -6 58 -28 l-4 -23 34 26 c30 23 36 25 58 13 20 -11 27 -11 40 0
17 14 31 8 20 -9 -3 -6 -11 -9 -16 -6 -5 4 -9 2 -9 -4 0 -5 5 -13 10 -16 13
-8 13 -62 0 -70 -14 -9 -12 -25 2 -23 7 2 14 -7 16 -19 l3 -23 363 0 c199 0
366 3 369 7 9 8 75 8 84 0 9 -10 823 -9 823 1 0 4 90 7 200 7 153 0 200 -3
200 -12 0 -15 76 -18 82 -4 2 6 36 5 85 -2 58 -7 119 -7 205 0 68 5 125 6 126
1 2 -4 30 -8 63 -8 43 0 59 4 59 14 0 11 10 11 49 4 27 -5 625 -7 1360 -6 721
2 1311 0 1311 -4 0 -4 386 -5 858 -3 471 3 991 5 1155 5 l297 0 0 55 c0 64 10
59 -150 75 -165 16 -361 39 -405 48 l-40 7 -12 210 c-6 116 -12 236 -12 268
-1 56 0 57 27 57 41 1 154 43 218 81 87 52 177 148 222 237 106 211 94 441
-34 634 -50 74 -125 147 -194 187 -44 25 -46 27 -39 61 18 88 29 429 19 595
-24 398 -128 730 -306 973 -170 233 -419 419 -646 483 -102 29 -266 27 -351
-4 -98 -36 -155 -73 -238 -156 -70 -70 -218 -257 -232 -291 -3 -8 -6 330 -6
751 l-1 766 -23 44 c-13 24 -43 58 -66 74 l-43 30 -221 3 c-168 2 -225 0 -234
-9z m-2696 -2091 c-3 -8 -6 -5 -6 6 -1 11 2 17 5 13 3 -3 4 -12 1 -19z m3308
-722 c-10 -53 -25 -44 -25 16 0 48 1 51 16 37 11 -12 14 -26 9 -53z m-347
-1134 c9 -7 12 -49 10 -178 l-3 -169 -1175 0 -1175 0 -3 165 c-1 90 0 170 2
177 4 11 229 13 1168 13 640 0 1169 -4 1176 -8z m-3258 -212 c0 -11 -4 -20 -9
-20 -5 0 -7 9 -4 20 3 11 7 20 9 20 2 0 4 -9 4 -20z m4998 -305 c2 -2 -4 -108
-12 -237 -9 -128 -16 -241 -16 -251 0 -14 -9 -17 -50 -17 -27 0 -50 4 -50 10
0 5 8 29 18 52 12 32 17 71 17 148 0 88 -4 113 -23 153 -12 26 -27 47 -32 47
-14 0 -12 19 8 68 l17 43 60 -7 c33 -3 61 -8 63 -9z m-2530 -177 l2 -168 -385
0 -385 0 0 163 c0 90 3 167 7 170 4 4 176 6 382 5 l376 -3 3 -167z m790 0 l-3
-163 -375 0 -375 0 -3 150 c-1 82 0 155 2 162 4 10 83 13 381 13 l375 0 -2
-162z m-3561 85 c-2 -16 -4 -5 -4 22 0 28 2 40 4 28 2 -13 2 -35 0 -50z m610
15 c-2 -13 -4 -5 -4 17 -1 22 1 32 4 23 2 -10 2 -28 0 -40z m1353 -103 l0
-155 -375 0 -375 0 0 155 0 155 375 0 375 0 0 -155z m-1878 -341 c27 -5 38
-12 40 -27 2 -16 18 -25 68 -40 105 -31 112 -35 55 -38 -173 -6 -281 23 -245
66 7 8 10 22 6 30 -6 17 14 19 76 9z m-998 -37 c-2 -14 3 -13 28 5 29 20 32
20 64 5 21 -10 33 -12 31 -6 -1 7 4 14 12 17 11 3 12 0 6 -14 -4 -11 -9 -39
-11 -64 -4 -51 -22 -70 -68 -70 -46 0 -59 13 -66 67 -4 26 -11 56 -15 67 -6
14 -5 17 6 14 8 -3 13 -12 13 -21z m1526 3 c0 -22 44 -44 108 -56 85 -15 64
-25 -48 -21 -87 2 -123 7 -150 21 -19 10 -36 20 -38 21 -2 1 0 14 4 29 6 24
10 26 65 26 52 0 59 -2 59 -20z"/>
<path d="M3928 4283 c-30 -36 -30 -47 0 -19 18 17 32 31 32 33 0 9 -19 1 -32
-14z"/>
<path d="M4066 4134 c-11 -7 -16 -17 -13 -21 4 -4 15 1 24 10 22 21 14 30 -11
11z"/>
<path d="M3732 3857 l-83 -84 58 -43 c32 -24 73 -56 91 -72 18 -15 37 -28 43
-28 7 0 9 53 7 155 -2 132 -5 155 -18 155 -9 0 -53 -37 -98 -83z"/>
<path d="M3960 3261 c0 -9 30 -24 36 -18 2 1 -6 8 -16 15 -11 7 -20 8 -20 3z"/>
<path d="M2240 1602 l0 -119 102 -7 c121 -8 126 -5 152 86 10 35 24 82 31 105
7 23 11 44 7 47 -3 3 -70 6 -149 6 l-143 0 0 -118z"/>
<path d="M2295 1431 c-49 -6 -50 -7 -56 -44 -4 -26 -2 -43 7 -52 9 -9 14 -37
14 -78 0 -77 11 -90 71 -85 48 3 50 6 79 108 12 41 26 87 32 103 21 54 -11 64
-147 48z"/>
<path d="M1737 1333 c-4 -3 -7 -37 -7 -75 l0 -68 30 0 30 0 0 69 c0 54 -4 70
-16 75 -20 8 -29 8 -37 -1z"/>
<path d="M2272 1128 c-8 -8 -12 -48 -12 -114 0 -81 3 -103 15 -108 20 -7 40
25 60 99 27 98 28 104 15 120 -15 18 -61 20 -78 3z"/>
<path d="M1735 1100 c-14 -23 11 -30 116 -30 l111 0 -3 -77 c-3 -67 -1 -78 14
-81 14 -3 17 4 17 45 0 26 3 72 6 101 l7 52 -131 0 c-76 0 -133 -4 -137 -10z"/>
<path d="M1445 1054 c-60 -25 -111 -47 -112 -48 -1 -1 1 -20 4 -44 l6 -42 133
0 134 0 0 90 0 90 -27 -1 c-16 0 -77 -20 -138 -45z"/>
<path d="M1210 959 c-14 -4 -43 -15 -65 -23 l-40 -15 73 -1 c65 0 72 2 72 19
0 25 -9 30 -40 20z"/>
<path d="M1205 30 c3 -5 12 -10 20 -10 8 0 17 5 20 10 4 6 -5 10 -20 10 -15 0
-24 -4 -20 -10z"/>
</g>
</svg>
